HIERARCHY
ROOT Hips
{
	OFFSET 0.000000 0.000000 0.000000
	CHANNELS 6 Xposition Yposition Zposition Zrotation Yrotation Xrotation 
	JOINT LowerBack
	{
		OFFSET 0.000000 0.000000 0.000000
		CHANNELS 3 Zrotation Yrotation Xrotation
		JOINT Spine
		{
			OFFSET 0.028270 2.035590 -0.193380
			CHANNELS 3 Zrotation Yrotation Xrotation
			JOINT Spine1
			{
				OFFSET 0.056720 2.048850 -0.042750
				CHANNELS 3 Zrotation Yrotation Xrotation
				JOINT Neck
				{
					OFFSET 0.000000 0.000000 0.000000
					CHANNELS 3 Zrotation Yrotation Xrotation
					JOINT Neck1
					{
						OFFSET -0.054170 1.746240 0.172020
						CHANNELS 3 Zrotation Yrotation Xrotation
						JOINT Head
						{
							OFFSET 0.104070 1.761360 -0.123970
							CHANNELS 3 Zrotation Yrotation Xrotation
							End Site
							{
								OFFSET 0.000000 0.000000 0.000000
							}
						}
					}
				}
				JOINT LeftShoulder
				{
					OFFSET 0.000000 0.000000 0.000000
					CHANNELS 3 Zrotation Yrotation Xrotation
					JOINT LeftArm
					{
						OFFSET 3.362410 1.200890 -0.311210
						CHANNELS 3 Zrotation Yrotation Xrotation
						JOINT LeftForeArm
						{
							OFFSET 4.983000 -0.000000 -0.000000
							CHANNELS 3 Zrotation Yrotation Xrotation
							JOINT LeftHand
							{
								OFFSET 3.483560 -0.000000 -0.000000
								CHANNELS 3 Zrotation Yrotation Xrotation
								JOINT LeftFingerBase
								{
									OFFSET 0.000000 0.000000 0.000000
									CHANNELS 3 Zrotation Yrotation Xrotation
									JOINT LeftHandIndex1
									{
										OFFSET 0.715260 -0.000000 -0.000000
										CHANNELS 3 Zrotation Yrotation Xrotation
										End Site
										{
											OFFSET 0.000000 0.000000 0.000000
										}
									}
								}
								JOINT LThumb
								{
									OFFSET 0.000000 0.000000 0.000000
									CHANNELS 3 Zrotation Yrotation Xrotation
									End Site
									{
										OFFSET 0.000000 0.000000 0.000000
									}
								}
							}
						}
					}
				}
				JOINT RightShoulder
				{
					OFFSET 0.000000 0.000000 0.000000
					CHANNELS 3 Zrotation Yrotation Xrotation
					JOINT RightArm
					{
						OFFSET -3.136600 1.374050 -0.404650
						CHANNELS 3 Zrotation Yrotation Xrotation
						JOINT RightForeArm
						{
							OFFSET -5.241900 -0.000000 -0.000000
							CHANNELS 3 Zrotation Yrotation Xrotation
							JOINT RightHand
							{
								OFFSET -3.444170 -0.000000 -0.000000
								CHANNELS 3 Zrotation Yrotation Xrotation
								JOINT RightFingerBase
								{
									OFFSET 0.000000 0.000000 0.000000
									CHANNELS 3 Zrotation Yrotation Xrotation
									JOINT RightHandIndex1
									{
										OFFSET -0.622530 -0.000000 -0.000000
										CHANNELS 3 Zrotation Yrotation Xrotation
										End Site
										{
											OFFSET 0.000000 0.000000 0.000000
										}
									}
								}
								JOINT RThumb
								{
									OFFSET 0.000000 0.000000 0.000000
									CHANNELS 3 Zrotation Yrotation Xrotation
									End Site
									{
										OFFSET 0.000000 0.000000 0.000000
									}
								}
							}
						}
					}
				}
			}
		}
	}
}
}
MOTION
Frames: 14
Frame Time: 0.008333
2.695589 15.258574 1.099825 64.866163 -81.820141 -24.750404 11.506743 -0.497176 6.051034 2.569983 -0.685486 -1.441697 -2.154085 -0.753195 0.031578 4.269289 -7.883862 -6.612913 -1.201969 -0.072224 -0.263234 0.000000 0.000000 0.000000 7.309544 10.673267 2.205420 -69.442323 5.855873 23.171277 0.016425 -87.625290 0.071217 -14.285852 -0.925865 0.156532 0.229064 0.303561 0.000000 0.000000 0.000000 0.000000 0.000000 0.000000 0.000000 -1.101789 -2.166077 0.142416 62.937140 10.727383 3.349442 0.075285 85.918550 -0.013281 -2.491934 1.704278 -0.045802 0.063028 -0.380874 0.000000 0.000000 0.000000 0.000000 0.000000 0.000000 0.000000 
2.520047 15.301884 1.080806 66.943577 -81.994580 -26.415930 10.937485 -0.415346 6.267689 2.468067 -0.564262 -1.376423 -2.055646 -0.632135 0.078215 4.076526 -7.918381 -6.546298 -1.093275 -0.064653 -0.252934 0.000000 0.000000 0.000000 7.034819 10.935332 2.241156 -69.708681 6.422187 23.614073 -0.022910 -87.035068 0.070063 -14.388454 -0.942005 0.158830 0.228269 0.297028 0.000000 0.000000 0.000000 0.000000 0.000000 0.000000 0.000000 -1.721041 -2.161781 0.070692 62.110205 11.158529 3.710474 0.029873 87.193960 -0.013567 -2.505664 1.740249 -0.047014 0.064087 -0.386406 0.000000 0.000000 0.000000 0.000000 0.000000 0.000000 0.000000 
2.341974 15.344825 1.062968 69.136222 -82.172285 -28.219982 10.352630 -0.330100 6.490346 2.360517 -0.440016 -1.309655 -1.964107 -0.507651 0.125322 3.913829 -7.972570 -6.498121 -0.987609 -0.057043 -0.247945 0.000000 0.000000 0.000000 6.751859 11.227508 2.278415 -69.915850 7.005417 24.044052 -0.060559 -86.472616 0.068837 -14.475805 -0.957568 0.161025 0.227126 0.290569 0.000000 0.000000 0.000000 0.000000 0.000000 0.000000 0.000000 -2.295129 -2.173531 0.004760 61.213989 11.505711 3.977512 -0.017711 88.533244 -0.014342 -2.565606 1.741106 -0.048326 0.066034 -0.391451 0.000000 0.000000 0.000000 0.000000 0.000000 0.000000 0.000000 
2.161041 15.387048 1.046079 71.465937 -82.343536 -30.187608 9.745359 -0.243968 6.713332 2.245676 -0.315775 -1.243533 -1.879529 -0.382733 0.170871 3.784433 -8.035035 -6.462366 -0.885660 -0.049547 -0.246188 0.000000 0.000000 0.000000 6.466410 11.536994 2.315937 -70.068784 7.619886 24.446568 -0.096204 -85.942643 0.067529 -14.546461 -0.960376 0.161220 0.225687 0.283959 0.000000 0.000000 0.000000 0.000000 0.000000 0.000000 0.000000 -2.820123 -2.191557 -0.054993 60.255627 11.761396 4.156131 -0.066422 89.922137 -0.014984 -2.659230 1.713279 -0.049537 0.068697 -0.395982 0.000000 0.000000 0.000000 0.000000 0.000000 0.000000 0.000000 
1.976679 15.428182 1.030434 73.873045 -82.510290 -32.260336 9.126247 -0.155381 6.928583 2.125610 -0.190871 -1.178875 -1.802710 -0.256810 0.219025 3.689719 -8.118467 -6.440321 -0.788043 -0.042191 -0.247788 0.000000 0.000000 0.000000 6.181331 11.871304 2.351163 -70.174769 8.252384 24.828104 -0.130471 -85.436103 0.066125 -14.597798 -0.952417 0.159914 0.223874 0.277208 -0.000000 0.000000 0.000000 0.000000 0.000000 0.000000 0.000000 -3.289262 -2.230558 -0.108979 59.239172 11.940069 4.259513 179.883803 88.657877 179.984010 -2.781428 1.654929 -0.050548 0.072086 -0.399836 0.000000 0.000000 0.000000 0.000000 0.000000 0.000000 0.000000 
1.788508 15.467773 1.016048 76.330158 -82.670088 -34.410659 8.497880 -0.065748 7.127314 2.000897 -0.067353 -1.117954 -1.733532 -0.131992 0.269873 3.629900 -8.220397 -6.430082 -0.694836 -0.035021 -0.251865 0.000000 0.000000 0.000000 5.903553 12.225705 2.382869 -70.243130 8.910284 25.179516 -0.163152 -84.955599 0.064630 -14.630737 -0.927789 0.156107 0.221770 0.270216 -0.000000 0.000000 0.000000 0.000000 0.000000 0.000000 0.000000 -3.703111 -2.288997 -0.157287 58.177739 12.044415 4.299062 179.833385 87.221763 179.982864 -2.917835 1.575009 -0.051058 0.075970 -0.403060 0.000000 0.000000 0.000000 0.000000 0.000000 0.000000 0.000000 
1.596058 15.505293 1.002951 78.788263 -82.823076 -36.586114 7.866386 0.023845 7.300456 1.872993 0.053142 -1.062731 -1.671775 -0.010015 0.324674 3.603923 -8.342778 -6.432102 -0.605794 -0.028018 -0.258298 0.000000 0.000000 0.000000 5.639895 12.601330 2.410108 -70.283687 9.593782 25.497023 -0.194157 -84.501864 0.063056 -14.645438 -0.884501 0.149598 0.219415 0.262973 -0.000000 0.000000 0.000000 0.000000 0.000000 0.000000 0.000000 -4.063914 -2.369637 -0.200322 57.086775 12.081786 4.287293 179.782600 85.784211 179.981722 -3.055385 1.482735 -0.051067 0.080114 -0.405737 0.000000 0.000000 0.000000 0.000000 0.000000 0.000000 0.000000 
1.399109 15.540310 0.991227 81.178605 -82.971984 -38.716368 7.240327 0.112179 7.439191 1.743972 0.169017 -1.015324 -1.617104 0.107417 0.384103 3.609095 -8.487041 -6.447556 -0.520317 -0.021125 -0.267158 0.000000 0.000000 0.000000 5.397434 12.998794 2.432495 -70.306493 10.303514 25.777230 -0.223265 -84.077857 0.061418 -14.643924 -0.822231 0.140487 0.216884 0.255502 -0.000000 0.000000 0.000000 0.000000 0.000000 0.000000 0.000000 -4.378080 -2.474033 -0.238782 55.985830 12.058784 4.235732 179.731583 84.357408 179.980649 -3.182436 1.388550 -0.050574 0.084261 -0.408026 0.000000 0.000000 0.000000 0.000000 0.000000 0.000000 0.000000 
1.197408 15.572404 0.980850 83.427343 -83.120093 -40.723204 6.628315 0.197774 7.535873 1.616037 0.278645 -0.977611 -1.568931 0.218571 0.448486 3.641787 -8.654937 -6.478200 -0.437438 -0.014245 -0.278777 0.000000 0.000000 0.000000 5.182182 13.418674 2.450124 -70.321187 11.038298 26.018171 -0.250198 -83.687509 0.059739 -14.627926 -0.742901 0.128976 0.214245 0.247882 -0.000000 0.000000 0.000000 0.000000 0.000000 0.000000 0.000000 -4.654463 -2.603805 -0.273379 54.896599 11.982153 4.154610 179.680527 82.952338 179.979713 -3.289730 1.303138 -0.049881 0.088166 -0.410140 0.000000 0.000000 0.000000 0.000000 0.000000 0.000000 0.000000 
0.990916 15.601269 0.971752 85.457968 -83.270866 -42.528618 6.038795 0.278974 7.584968 1.491381 0.380438 -0.951119 -1.526590 0.321768 0.517703 3.697665 -8.847205 -6.526056 -0.356062 -0.007259 -0.293595 0.000000 0.000000 0.000000 5.000105 13.861385 2.463599 -70.336173 11.794855 26.219301 -0.274662 -83.335598 0.058046 -14.599978 -0.650205 0.115664 0.211560 0.240222 -0.000000 0.000000 0.000000 0.000000 0.000000 0.000000 0.000000 -4.903773 -2.759204 -0.305089 53.842023 11.856741 4.052213 179.629712 81.577400 179.978961 -3.371187 1.235476 -0.049188 0.091609 -0.412304 0.000000 0.000000 0.000000 0.000000 0.000000 0.000000 0.000000 
0.779405 15.626584 0.963861 87.204093 -83.427710 -44.060389 5.478262 0.354367 7.582594 1.371738 0.473194 -0.936966 -1.489499 0.415736 0.591278 3.772199 -9.063744 -6.592908 -0.275145 -0.000051 -0.312106 0.000000 0.000000 0.000000 4.854816 14.326652 2.473876 -70.357872 12.568579 26.382299 -0.296380 -83.026941 0.056373 -14.562031 -0.549603 0.101250 0.208876 0.232667 -0.000000 0.000000 0.000000 0.000000 0.000000 0.000000 0.000000 -5.136233 -2.939533 -0.334766 52.844241 11.686120 3.935722 179.579532 80.239548 179.978409 -3.424649 1.192448 -0.048794 0.094448 -0.414735 0.000000 0.000000 0.000000 0.000000 0.000000 0.000000 0.000000 
0.563049 15.648294 0.956979 88.610805 -83.593273 -45.264600 4.951077 0.422773 7.528768 1.258282 0.556083 -0.935522 -1.457212 0.499605 0.668303 3.860992 -9.303268 -6.679834 -0.193763 0.007478 -0.334620 0.000000 0.000000 0.000000 4.749456 14.812988 2.482022 -70.391098 13.353237 26.509736 -0.315058 -82.767014 0.054724 -14.516041 -0.447158 0.086736 0.206231 0.225355 -0.000000 0.000000 0.000000 0.000000 0.000000 0.000000 0.000000 -5.362156 -3.142721 -0.363505 51.923723 11.472626 3.810638 179.530485 78.942167 179.978053 -3.451011 1.177479 -0.048800 0.096582 -0.417604 -0.000000 0.000000 0.000000 0.000000 0.000000 0.000000 0.000000 
0.341866 15.666278 0.951063 89.651241 -83.770080 -46.112941 4.459431 0.484316 7.424620 1.151534 0.629553 -0.946866 -1.429585 0.573796 0.747697 3.959719 -9.564513 -6.787030 -0.111517 0.015377 -0.361268 0.000000 0.000000 0.000000 4.684547 15.316124 2.488784 -70.439911 14.142852 26.604422 -0.330604 -82.558805 0.053139 -14.464163 -0.353186 0.073423 0.203666 0.218476 -0.000000 0.000000 0.000000 0.000000 0.000000 0.000000 0.000000 -5.588351 -3.366596 -0.391787 51.095890 11.216986 3.681852 179.483211 77.690103 179.977865 -3.454181 1.189504 -0.049306 0.098005 -0.420981 -0.000000 0.000000 0.000000 0.000000 0.000000 0.000000 0.000000 
0.116019 15.680558 0.945723 90.320341 -83.959875 -46.605531 4.001607 0.537742 7.280479 1.051329 0.692961 -0.968912 -1.406127 0.637715 0.827812 4.064670 -9.839622 -6.913287 -0.027765 0.023703 -0.391997 0.000000 0.000000 0.000000 4.659610 15.835266 2.495718 -70.503573 14.930397 26.670016 -0.342600 -82.409329 0.051625 -14.406489 -0.266760 0.061210 0.201192 0.212055 -0.000000 0.000000 0.000000 0.000000 0.000000 0.000000 0.000000 -5.823083 -3.602673 -0.420606 50.375652 10.920601 3.555688 179.438537 76.488777 179.977830 -3.436139 1.230719 -0.050512 0.098639 -0.424969 -0.000000 0.000000 0.000000 0.000000 0.000000 0.000000 0.000000 
